<svg viewBox="0 0 173 98" fill="none" xmlns="http://www.w3.org/2000/svg">
<g opacity="0.1" clip-path="url(#clip0_1_86)">
<path d="M64.75 31.64H64.77H86.25C89.37 31.64 91.91 34.17 91.91 37.29C91.91 40.41 89.38 42.95 86.26 42.95H86.25C85.42 42.95 84.75 43.62 84.75 44.45C84.75 45.28 85.42 45.95 86.25 45.95C91.03 45.95 94.91 42.07 94.91 37.29C94.91 32.51 91.03 28.63 86.25 28.63H64.77C62.63 28.63 60.9 26.9 60.9 24.76C60.9 22.62 62.63 20.89 64.77 20.89H88.03C93.8 20.89 98.48 16.21 98.48 10.44C98.48 4.67 93.8 0 88.03 0C87.2 0 86.53 0.67 86.53 1.5C86.53 2.33 87.2 3 88.03 3C92.14 3 95.48 6.34 95.48 10.45C95.48 14.56 92.14 17.9 88.03 17.9H64.77C60.98 17.9 57.9 20.97 57.89 24.76C57.89 28.55 60.96 31.63 64.75 31.64Z" fill="black"/>
<path d="M70.14 13.74H80.87C83.68 13.74 85.95 11.47 85.95 8.66C85.95 5.85 83.68 3.58 80.87 3.58C80.04 3.58 79.37 4.25 79.37 5.08C79.37 5.91 80.04 6.58 80.87 6.58C82.02 6.58 82.95 7.51 82.95 8.66C82.95 9.81 82.02 10.74 80.87 10.74H70.14C69.31 10.74 68.64 11.41 68.64 12.24C68.64 13.07 69.31 13.74 70.14 13.74Z" fill="black"/>
<path d="M102.35 10.16C105.48 10.16 108.01 12.69 108.01 15.82C108.01 18.95 105.48 21.48 102.35 21.48H96.98C96.15 21.48 95.48 22.15 95.48 22.98C95.48 23.81 96.15 24.48 96.98 24.48H102.35C107.13 24.48 111.01 20.6 111.01 15.82C111.01 11.04 107.13 7.16 102.35 7.16C101.52 7.16 100.85 7.83 100.85 8.66C100.85 9.49 101.52 10.16 102.35 10.16Z" fill="black"/>
<path d="M107.72 28.65H96.98C96.15 28.65 95.48 29.32 95.48 30.15C95.48 30.98 96.15 31.64 96.98 31.65H107.72C109.86 31.65 111.59 33.38 111.59 35.51C111.59 37.65 109.86 39.38 107.73 39.38H107.72C106.89 39.38 106.22 40.05 106.22 40.88C106.22 41.71 106.89 42.38 107.72 42.38C111.51 42.38 114.59 39.31 114.59 35.51C114.59 31.71 111.52 28.64 107.72 28.64V28.65Z" fill="black"/>
<path d="M15.19 91.75L12.99 69.52H8.76L6.64 91.59L4.28 69.51H0L3.12 97.51H9.16L10.76 82.59L12.36 97.51H18.2L21.32 69.51H17.48L15.19 91.75Z" fill="black"/>
<path d="M27.52 97.51H39.52V93.51H31.92V85.31H37.96V81.31H31.92V73.51H39.52V69.51H27.52V97.51Z" fill="black"/>
<path d="M49.5499 69.51L45.0699 97.5H49.1099L49.8699 92.42H55.2699L56.0299 97.5H60.4699L55.9899 69.51H49.5499ZM50.4299 88.63L52.5499 74.47L54.6699 88.63H50.4299Z" fill="black"/>
<path d="M63.72 73.51H68.32V97.51H72.72V73.51H77.32V69.51H63.72V73.51Z" fill="black"/>
<path d="M92.63 81.51H87.63V69.51H83.23V97.51H87.63V85.51H92.63V97.51H97.11V69.51H92.63V81.51Z" fill="black"/>
<path d="M104.32 97.51H116.32V93.51H108.71V85.31H114.75V81.31H108.71V73.51H116.32V69.51H104.32V97.51Z" fill="black"/>
<path d="M136.23 94.11V89.79C136.23 86.87 135.51 84.75 133.31 83.83C135.27 82.91 136.19 81.03 136.19 78.15V75.95C136.19 71.63 134.23 69.51 129.67 69.51H123.03V97.5H127.43V86.1H128.95C130.95 86.1 131.83 87.06 131.83 89.66V94.06C131.73 95.22 131.87 96.39 132.23 97.5H136.71C136.31 96.41 136.15 95.25 136.23 94.1V94.11ZM131.79 79.15C131.79 81.39 130.79 82.11 129.15 82.11H127.43V73.51H129.55C131.11 73.51 131.79 74.39 131.79 76.39V79.15Z" fill="black"/>
<path d="M147.51 69.51H143.11V97.51H154.75V93.51H147.51V69.51Z" fill="black"/>
<path d="M168.07 69.51L164.71 82.27L161.35 69.51H156.75L162.31 88.23V97.51H166.71V88.23L172.27 69.51H168.07Z" fill="black"/>
</g>
<defs>
<clipPath id="clip0_1_86">
<rect width="172.27" height="97.51" fill="white"/>
</clipPath>
</defs>
</svg>
