<svg viewBox="0 0 32 32" fill="none" xmlns="http://www.w3.org/2000/svg">
<g clip-path="url(#clip0_2_1981)">
<path d="M24.5 6C24.42 6 24.33 6.01 24.25 6.01C22.88 2.96 19.85 1 16.5 1C12.29 1 8.72 4.08 8.1 8.24C7.58 8.08 7.04 8 6.5 8C3.46 8 1 10.46 1 13.5C1 16.54 3.46 19 6.5 19H24.5C28.09 19 31 16.09 31 12.5C31 8.91 28.09 6 24.5 6Z" fill="#CDF0F0"/>
<path opacity="0.1" d="M8 10C8 9.42 8.06 8.83 8.17 8.26L8.09 8.24C7.57 8.08 7.04 8 6.5 8C3.46 8 1 10.46 1 13.5C1 16.54 3.46 19 6.5 19H17C12.03 19 8 14.97 8 10Z" fill="#000064"/>
<path opacity="0.5" d="M31 12.5C31 8.91 28.09 6 24.5 6C24.42 6 24.33 6.01 24.25 6.02C23.11 3.49 20.81 1.67 18.08 1.15C17.89 1.12 17.69 1.08 17.49 1.06H17.36C17.07 1.02 16.78 1 16.49 1C15.96 1 15.43 1.05 14.9 1.14C13.36 1.43 11.93 2.15 10.77 3.22C11.5 3.07 12.24 3 12.98 3C16.21 3 19.29 4.36 21.47 6.75C20.66 7.17 19.96 7.76 19.39 8.47C20.22 8.16 21.1 8 21.99 8C26.13 8 29.49 11.36 29.49 15.5C29.49 15.93 29.45 16.36 29.37 16.78C30.41 15.6 30.98 14.08 30.98 12.5H31Z" fill="white"/>
<path d="M9 23C9.27614 23 9.5 22.7761 9.5 22.5C9.5 22.2239 9.27614 22 9 22C8.72386 22 8.5 22.2239 8.5 22.5C8.5 22.7761 8.72386 23 9 23Z" fill="#CDF0F0"/>
<path d="M13 25C13.2761 25 13.5 24.7761 13.5 24.5C13.5 24.2239 13.2761 24 13 24C12.7239 24 12.5 24.2239 12.5 24.5C12.5 24.7761 12.7239 25 13 25Z" fill="#CDF0F0"/>
<path d="M14 29C14.2761 29 14.5 28.7761 14.5 28.5C14.5 28.2239 14.2761 28 14 28C13.7239 28 13.5 28.2239 13.5 28.5C13.5 28.7761 13.7239 29 14 29Z" fill="#CDF0F0"/>
<path d="M19 31C19.2761 31 19.5 30.7761 19.5 30.5C19.5 30.2239 19.2761 30 19 30C18.7239 30 18.5 30.2239 18.5 30.5C18.5 30.7761 18.7239 31 19 31Z" fill="#CDF0F0"/>
<path d="M23 29C23.2761 29 23.5 28.7761 23.5 28.5C23.5 28.2239 23.2761 28 23 28C22.7239 28 22.5 28.2239 22.5 28.5C22.5 28.7761 22.7239 29 23 29Z" fill="#CDF0F0"/>
<path d="M9 30.99C9.27614 30.99 9.5 30.7661 9.5 30.49C9.5 30.2139 9.27614 29.99 9 29.99C8.72386 29.99 8.5 30.2139 8.5 30.49C8.5 30.7661 8.72386 30.99 9 30.99Z" fill="#CDF0F0"/>
<path d="M24 24C24.2761 24 24.5 23.7761 24.5 23.5C24.5 23.2239 24.2761 23 24 23C23.7239 23 23.5 23.2239 23.5 23.5C23.5 23.7761 23.7239 24 24 24Z" fill="#CDF0F0"/>
<path d="M18 27C18.2761 27 18.5 26.7761 18.5 26.5C18.5 26.2239 18.2761 26 18 26C17.7239 26 17.5 26.2239 17.5 26.5C17.5 26.7761 17.7239 27 18 27Z" fill="#CDF0F0"/>
<path d="M7 26.99C7.27614 26.99 7.5 26.7661 7.5 26.49C7.5 26.2139 7.27614 25.99 7 25.99C6.72386 25.99 6.5 26.2139 6.5 26.49C6.5 26.7661 6.72386 26.99 7 26.99Z" fill="#CDF0F0"/>
<path d="M19 23C19.2761 23 19.5 22.7761 19.5 22.5C19.5 22.2239 19.2761 22 19 22C18.7239 22 18.5 22.2239 18.5 22.5C18.5 22.7761 18.7239 23 19 23Z" fill="#CDF0F0"/>
<path d="M24.5 6.01C24.42 6.01 24.33 6.01 24.25 6.02C22.88 2.97 19.85 1 16.5 1C12.29 1 8.72 4.08 8.1 8.24C7.58 8.08 7.04 8 6.5 8C3.46 8 1 10.47 1 13.5C1 16.54 3.46 19 6.5 19H24.5C28.09 19 31 16.09 31 12.5C31 8.91 28.09 6 24.5 6V6.01Z" stroke="#2E4369" stroke-linecap="round" stroke-linejoin="round"/>
<path d="M9 23C9.27614 23 9.5 22.7761 9.5 22.5C9.5 22.2239 9.27614 22 9 22C8.72386 22 8.5 22.2239 8.5 22.5C8.5 22.7761 8.72386 23 9 23Z" stroke="#2E4369" stroke-linecap="round" stroke-linejoin="round"/>
<path d="M13 25C13.2761 25 13.5 24.7761 13.5 24.5C13.5 24.2239 13.2761 24 13 24C12.7239 24 12.5 24.2239 12.5 24.5C12.5 24.7761 12.7239 25 13 25Z" stroke="#2E4369" stroke-linecap="round" stroke-linejoin="round"/>
<path d="M14 29C14.2761 29 14.5 28.7761 14.5 28.5C14.5 28.2239 14.2761 28 14 28C13.7239 28 13.5 28.2239 13.5 28.5C13.5 28.7761 13.7239 29 14 29Z" stroke="#2E4369" stroke-linecap="round" stroke-linejoin="round"/>
<path d="M19 31C19.2761 31 19.5 30.7761 19.5 30.5C19.5 30.2239 19.2761 30 19 30C18.7239 30 18.5 30.2239 18.5 30.5C18.5 30.7761 18.7239 31 19 31Z" stroke="#2E4369" stroke-linecap="round" stroke-linejoin="round"/>
<path d="M23 29C23.2761 29 23.5 28.7761 23.5 28.5C23.5 28.2239 23.2761 28 23 28C22.7239 28 22.5 28.2239 22.5 28.5C22.5 28.7761 22.7239 29 23 29Z" stroke="#2E4369" stroke-linecap="round" stroke-linejoin="round"/>
<path d="M9 30.99C9.27614 30.99 9.5 30.7661 9.5 30.49C9.5 30.2139 9.27614 29.99 9 29.99C8.72386 29.99 8.5 30.2139 8.5 30.49C8.5 30.7661 8.72386 30.99 9 30.99Z" stroke="#2E4369" stroke-linecap="round" stroke-linejoin="round"/>
<path d="M24 24C24.2761 24 24.5 23.7761 24.5 23.5C24.5 23.2239 24.2761 23 24 23C23.7239 23 23.5 23.2239 23.5 23.5C23.5 23.7761 23.7239 24 24 24Z" stroke="#2E4369" stroke-linecap="round" stroke-linejoin="round"/>
<path d="M18 27C18.2761 27 18.5 26.7761 18.5 26.5C18.5 26.2239 18.2761 26 18 26C17.7239 26 17.5 26.2239 17.5 26.5C17.5 26.7761 17.7239 27 18 27Z" stroke="#2E4369" stroke-linecap="round" stroke-linejoin="round"/>
<path d="M7 26.99C7.27614 26.99 7.5 26.7661 7.5 26.49C7.5 26.2139 7.27614 25.99 7 25.99C6.72386 25.99 6.5 26.2139 6.5 26.49C6.5 26.7661 6.72386 26.99 7 26.99Z" stroke="#2E4369" stroke-linecap="round" stroke-linejoin="round"/>
<path d="M19 23C19.2761 23 19.5 22.7761 19.5 22.5C19.5 22.2239 19.2761 22 19 22C18.7239 22 18.5 22.2239 18.5 22.5C18.5 22.7761 18.7239 23 19 23Z" stroke="#2E4369" stroke-linecap="round" stroke-linejoin="round"/>
</g>
<defs>
<clipPath id="clip0_2_1981">
<rect width="31" height="31" fill="white" transform="translate(0.5 0.5)"/>
</clipPath>
</defs>
</svg>
