<svg viewBox="0 0 32 32" fill="none" xmlns="http://www.w3.org/2000/svg">
<path d="M24.5 7.6C24.42 7.6 24.33 7.6 24.25 7.61C22.91 4.52 19.87 2.51 16.5 2.5C12.26 2.53 8.68003 5.68 8.10003 9.88C7.58003 9.72 7.04003 9.64 6.50003 9.64C3.44003 9.67 0.970026 12.18 1.00003 15.24C0.970026 18.3 3.44003 20.81 6.50003 20.84H24.5C28.12 20.81 31.03 17.84 31 14.22C31.03 10.6 28.12 7.64 24.5 7.6Z" fill="#CDF0F0"/>
<path opacity="0.1" d="M8.00003 11.67C8.00003 11.07 8.06003 10.48 8.17003 9.9L8.09003 9.88C7.57003 9.72 7.04003 9.64 6.50003 9.64C3.44003 9.67 0.970026 12.18 1.00003 15.24C0.970026 18.3 3.44003 20.81 6.50003 20.84H17C11.98 20.79 7.96003 16.69 8.00003 11.68V11.67Z" fill="#000064"/>
<path opacity="0.5" d="M31 14.22C31.03 10.6 28.12 7.62999 24.5 7.59999C24.42 7.59999 24.33 7.60999 24.25 7.61999C23.13 5.05999 20.83 3.19999 18.08 2.65999C17.89 2.62999 17.69 2.58999 17.49 2.56999L17.36 2.54999C17.07 2.51999 16.78 2.50999 16.49 2.50999C15.96 2.50999 15.43 2.55999 14.9 2.65999C13.35 2.95999 11.92 3.69999 10.77 4.76999C11.5 4.61999 12.24 4.54999 12.98 4.54999C16.22 4.54999 19.31 5.93999 21.47 8.36999C20.66 8.79999 19.95 9.39999 19.39 10.12C20.22 9.79999 21.1 9.63999 21.99 9.63999C26.17 9.67999 29.53 13.1 29.49 17.28C29.49 17.72 29.45 18.15 29.37 18.58C30.41 17.37 30.98 15.82 30.98 14.22H31Z" fill="white"/>
<path d="M18.37 14.22L11 22.37H14.73L13.1 29.5L20.99 20.84H17.3L18.35 14.22H18.37Z" fill="#FFFF66"/>
<path d="M21 20.84H24.5C28.12 20.81 31.03 17.84 31 14.22C31.03 10.6 28.12 7.63 24.5 7.6C24.42 7.6 24.33 7.61 24.25 7.61C22.91 4.52 19.87 2.51 16.5 2.5C12.26 2.53 8.68003 5.67 8.10003 9.88C7.58003 9.72 7.04003 9.64 6.50003 9.64C3.44003 9.67 0.970026 12.18 1.00003 15.24C0.970026 18.3 3.44003 20.81 6.50003 20.84H12.38" stroke="#2E4369" stroke-width="1.01" stroke-linecap="round" stroke-linejoin="round"/>
<path d="M18.37 14.22L11 22.37H14.73L13.1 29.5L20.99 20.84H17.31L18.36 14.22H18.37Z" stroke="#2E4369" stroke-width="1.01" stroke-linecap="round" stroke-linejoin="round"/>
<path d="M8.00001 24.95L4.82001 29.02" stroke="#2E4369" stroke-width="1.01" stroke-linecap="round" stroke-linejoin="round"/>
<path d="M24 24.95L20.82 28.99" stroke="#2E4369" stroke-width="1.01" stroke-linecap="round" stroke-linejoin="round"/>
</svg>
