<svg viewBox="0 0 32 32" fill="none" xmlns="http://www.w3.org/2000/svg">
<g clip-path="url(#clip0_2_2036)">
<path d="M26.01 18C25 15.58 22.63 14 20.01 14C16.6 14 13.77 16.65 13.53 20.05C13.36 20.02 13.18 20 13 20C10.79 20 9 21.79 9 24C9 26.21 10.79 28 13 28H26C28.76 28 31 25.76 31 23C31 20.24 28.77 18 26.01 18Z" fill="#CDF0F0"/>
<path d="M16.99 14.74C16.85 12.08 14.66 10 12 10C9.24 10 7 12.24 7 15C7 17.76 9.24 20 12 20C12.53 20 13.06 19.92 13.56 19.75C13.8 17.61 15.09 15.74 16.99 14.74Z" fill="#FFCC00"/>
<path opacity="0.1" d="M13.56 19.75C13.8 17.61 15.09 15.74 16.99 14.73C16.98 14.49 16.94 14.25 16.9 14.02C13.79 14.32 11.33 16.79 11.05 19.9C11.36 19.96 11.68 19.99 12 19.99C12.53 19.99 13.06 19.91 13.56 19.74V19.75Z" fill="#000064"/>
<path opacity="0.1" d="M13.5 21C13.5 20.69 13.53 20.38 13.57 20.07L13.54 20.04V20.06C13.37 20.03 13.19 20.01 13.01 20.01C10.8 20.01 9.01001 21.8 9.01001 24.01C9.01001 26.22 10.8 28.01 13.01 28.01H20.5C16.63 28.01 13.5 24.88 13.5 21.01V21Z" fill="#000064"/>
<path opacity="0.5" d="M24.08 18.39C23.41 18.67 22.81 19.09 22.32 19.62C22.71 19.54 23.1 19.5 23.49 19.5C26.8 19.5 29.49 22.19 29.49 25.5C29.49 25.89 29.45 26.29 29.37 26.67C30.4 25.73 30.99 24.39 30.99 23C30.99 20.37 28.94 18.19 26.31 18.02C26.21 18.02 26.1 18 26 18C24.99 15.58 22.62 14 20 14C18.38 14 16.81 14.61 15.62 15.71C16.23 15.57 16.86 15.5 17.49 15.5C19.99 15.5 22.38 16.55 24.08 18.39Z" fill="white"/>
<path d="M13.56 19.75C13.06 19.91 12.53 20 12 20C9.24 20 7 17.76 7 15C7 12.24 9.24 10 12 10C14.66 10 16.85 12.08 16.99 14.74" stroke="#2E4369" stroke-linecap="round" stroke-linejoin="round"/>
<path d="M12 4V7.01" stroke="#2E4369" stroke-linecap="round" stroke-linejoin="round"/>
<path d="M4.01 15.01H1" stroke="#2E4369" stroke-linecap="round" stroke-linejoin="round"/>
<path d="M4.21997 7.22L6.34997 9.35" stroke="#2E4369" stroke-linecap="round" stroke-linejoin="round"/>
<path d="M19.78 7.22L17.66 9.35" stroke="#2E4369" stroke-linecap="round" stroke-linejoin="round"/>
<path d="M6.34997 20.66L4.21997 22.79" stroke="#2E4369" stroke-linecap="round" stroke-linejoin="round"/>
<path d="M26.01 18C25 15.58 22.63 14 20.01 14C16.6 14 13.77 16.65 13.53 20.05C13.36 20.02 13.18 20 13 20C10.79 20 9 21.79 9 24C9 26.21 10.79 28 13 28H26C28.76 28 31 25.76 31 23C31 20.24 28.77 18 26.01 18V18Z" stroke="#2E4369" stroke-linecap="round" stroke-linejoin="round"/>
</g>
<defs>
<clipPath id="clip0_2_2036">
<rect width="31" height="25" fill="white" transform="translate(0.5 3.5)"/>
</clipPath>
</defs>
</svg>
