<svg viewBox="0 0 32 32" fill="none" xmlns="http://www.w3.org/2000/svg">
<path d="M28 21.4951C28 18.1851 25.31 15.4951 22 15.4951C21.8 15.4951 21.61 15.5051 21.42 15.5251C20.21 12.4951 17.27 10.4951 14 10.4951C9.97 10.4951 6.57 13.5051 6.07 17.5051C6.05 17.5051 6.03 17.5051 6 17.5051C3.24 17.5051 1 19.7451 1 22.5051C1 25.2651 3.24 27.5051 6 27.5051H22.04C25.34 27.4851 28.01 24.8051 28 21.5051V21.4951Z" fill="#CDF0F0"/>
<path opacity="0.1" d="M6 18.9951C6 18.5251 6.05 18.0451 6.13 17.5851L6 17.4951C3.24 17.4951 1 19.7351 1 22.4951C1 25.2551 3.24 27.4951 6 27.4951H14.48C9.79 27.4951 6 23.6851 6 18.9951Z" fill="#000064"/>
<path opacity="0.5" d="M28 21.4951C28 18.1851 25.31 15.4951 22 15.4951C21.82 15.4951 21.64 15.5051 21.46 15.5251H21.43C20.4 12.9451 18.1 11.0951 15.37 10.6151C15.28 10.6051 15.2 10.5851 15.11 10.5751C14.99 10.5551 14.88 10.5451 14.76 10.5351C14.51 10.5151 14.27 10.4951 14.02 10.4951C13.77 10.4951 13.5 10.5151 13.24 10.5351C11.41 10.7151 9.70002 11.5251 8.40002 12.8151C9.26002 12.6051 10.14 12.4951 11.02 12.4951C14.16 12.4951 17.15 13.8351 19.23 16.1851C19.04 16.2851 18.86 16.3951 18.68 16.5051C18.79 16.5051 18.91 16.4851 19.02 16.4851C23.16 16.4851 26.52 19.8451 26.52 23.9851C26.52 24.5451 26.45 25.1051 26.33 25.6551C27.42 24.5351 28.02 23.0451 28.02 21.4851L28 21.4951ZM20.89 15.6051H20.86H20.89Z" fill="white"/>
<path d="M31 13.4951C31 10.7351 28.76 8.49506 26.01 8.49506C25 6.07506 22.63 4.49506 20.01 4.49506C16.61 4.47506 13.77 7.09506 13.53 10.4951V10.5151C13.69 10.5151 13.85 10.4951 14 10.4951C17.27 10.4951 20.21 12.4851 21.42 15.5251C21.61 15.5051 21.8 15.4951 22 15.4951C24.09 15.4951 26.03 16.5851 27.12 18.3751C29.39 17.8551 31 15.8251 31 13.4951Z" fill="#CDF0F0"/>
<path opacity="0.1" d="M31 13.4951C31 10.7351 28.76 8.49506 26.01 8.49506C25 6.07506 22.63 4.49506 20.01 4.49506C16.61 4.47506 13.77 7.09506 13.53 10.4951V10.5151C13.69 10.5151 13.85 10.4951 14 10.4951C17.27 10.4951 20.21 12.4851 21.42 15.5251C21.61 15.5051 21.8 15.4951 22 15.4951C24.09 15.4951 26.03 16.5851 27.12 18.3751C29.39 17.8551 31 15.8251 31 13.4951Z" fill="#000064"/>
<path d="M27.12 18.3751C29.39 17.8551 31 15.8351 31 13.4951C31 10.7351 28.76 8.49506 26.01 8.49506C25 6.07506 22.63 4.49506 20.01 4.49506C16.61 4.47506 13.77 7.09506 13.53 10.4951" stroke="#2E4369" stroke-linecap="round" stroke-linejoin="round"/>
<path d="M28 21.4951C28 18.1851 25.31 15.4951 22 15.4951C21.81 15.4951 21.61 15.5051 21.42 15.5251C20.21 12.4851 17.27 10.4951 14 10.4951C9.97 10.4951 6.57 13.5051 6.07 17.5051C6.05 17.5051 6.03 17.5051 6 17.5051C3.24 17.5051 1 19.7451 1 22.5051C1 25.2651 3.24 27.5051 6 27.5051H22.04C25.34 27.4851 28 24.8051 28 21.5051V21.4951Z" stroke="#2E4369" stroke-linecap="round" stroke-linejoin="round"/>
</svg>