<svg viewBox="0 0 32 32" fill="none" xmlns="http://www.w3.org/2000/svg">
<path d="M30.89 20.0052C30.95 19.6752 30.98 19.3452 30.98 19.0052C30.93 15.6352 28.15 12.9552 24.78 13.0052C24.58 13.0052 24.38 13.0152 24.18 13.0352C22.87 9.96518 19.85 7.97517 16.51 8.00517C12.41 7.95517 8.90001 10.9452 8.31001 15.0152C8.29001 15.0152 8.27001 15.0152 8.24001 15.0152C5.43001 14.9652 3.12001 17.2052 3.07001 20.0152H30.89V20.0052Z" fill="#CDF0F0"/>
<path d="M7.22 4.00518C7.1 4.00518 6.98 4.01518 6.86 4.02518C7.1 4.55518 7.22 5.13518 7.22 5.72518C7.18 8.13518 5.19 10.0652 2.78 10.0252C2.18 10.0252 1.58 9.90518 1.02 9.67518C1.02 9.79518 1 9.90517 1 10.0252C1.03 12.7352 2.85 15.0852 5.46 15.7952C6.3 15.2752 7.26 15.0052 8.25 15.0052C8.27 15.0052 8.29 15.0052 8.32 15.0052C8.71 12.1552 10.6 9.72518 13.27 8.64518C12.56 5.88518 10.06 3.96518 7.22 3.99518V4.00518Z" fill="#E6F0FA"/>
<path opacity="0.1" d="M5.47 15.7952C6.31 15.2752 7.26999 15.0052 8.25999 15.0052C8.27999 15.0052 8.29999 15.0052 8.32999 15.0052C8.71999 12.1552 10.61 9.72517 13.28 8.64517C13.23 8.43517 13.17 8.23517 13.1 8.03517C9.32 8.35517 6.27 11.2452 5.73 15.0052C5.71 15.0052 5.69 15.0052 5.66 15.0052C5.14 15.0052 4.62 15.0852 4.12 15.2352C4.55 15.4752 5 15.6652 5.47 15.7952Z" fill="#000064"/>
<path opacity="0.1" d="M9.02 20.0052C8.5 18.9152 8.24 17.7152 8.23 16.5052C8.23 16.0352 8.28 15.5552 8.36 15.0952L8.23 15.0052C5.42 14.9652 3.11 17.1952 3.06 20.0052H9.00999H9.02Z" fill="#000064"/>
<path opacity="0.5" d="M29.28 20.0052H30.89C30.95 19.6752 30.98 19.3452 30.98 19.0052C30.93 15.6352 28.15 12.9552 24.78 13.0052C24.59 13.0052 24.4 13.0152 24.22 13.0352H24.19C23.08 10.4252 20.71 8.57518 17.92 8.12518C17.83 8.11518 17.74 8.09517 17.65 8.08517C17.53 8.06517 17.41 8.05517 17.28 8.04517C17.03 8.02517 16.77 8.00517 16.51 8.00517C16.25 8.00517 15.97 8.02517 15.7 8.04517C13.82 8.21517 12.06 9.02517 10.7 10.3252C11.59 10.1152 12.5 10.0052 13.41 10.0052C16.63 9.99517 19.71 11.3352 21.89 13.6952C21.7 13.7952 21.51 13.9052 21.32 14.0152C21.44 14.0152 21.56 13.9952 21.67 13.9952C25.3 13.9552 28.47 16.4552 29.27 19.9952L29.28 20.0052Z" fill="white"/>
<path d="M13.28 8.63518C12.57 5.87518 10.07 3.96518 7.22 3.99518C7.1 3.99518 6.98 4.00517 6.86 4.01517C7.1 4.54517 7.22 5.12517 7.22 5.71517C7.18 8.12517 5.19 10.0552 2.78 10.0152C2.18 10.0152 1.58 9.89517 1.02 9.66517C1.02 9.78517 1 9.89517 1 10.0152C1.03 12.7252 2.85 15.0752 5.46 15.7852" stroke="#2E4369" stroke-width="1.02" stroke-linecap="round" stroke-linejoin="round"/>
<path d="M30.65 17.0052C29.73 14.5752 27.4 12.9752 24.8 12.9952C24.6 12.9952 24.4 13.0052 24.2 13.0252C22.89 9.95517 19.87 7.97518 16.53 7.99518C12.43 7.94518 8.91999 10.9352 8.32999 15.0052C8.30999 15.0052 8.28999 15.0052 8.25999 15.0052C6.64999 15.0052 5.12 15.7352 4.12 17.0052" stroke="#2E4369" stroke-width="1.02" stroke-linecap="round" stroke-linejoin="round"/>
<path d="M3.08997 19.9952H31" stroke="#2E4369" stroke-width="1.02" stroke-linecap="round" stroke-linejoin="round"/>
<path d="M5.15997 24.0052H27.9" stroke="#2E4369" stroke-width="1.02" stroke-linecap="round" stroke-linejoin="round"/>
<path d="M9.28998 28.0052H25.83" stroke="#2E4369" stroke-width="1.02" stroke-linecap="round" stroke-linejoin="round"/>
<path d="M4.16998 28.0052H6.18998" stroke="#2E4369" stroke-width="1.02" stroke-linecap="round" stroke-linejoin="round"/>
</svg>
