<svg viewBox="0 0 32 32" fill="none" xmlns="http://www.w3.org/2000/svg">
<g clip-path="url(#clip0_2_1687)">
<path d="M23.42 19C26.18 19.03 28.45 16.82 28.5 14.06C28.45 11.28 26.17 9.07 23.39 9.12C23.22 9.12 23.06 9.12 22.9 9.15C21.82 6.62 19.33 4.99 16.58 5.01C13.2 4.96 10.31 7.43 9.82 10.78C9.8 10.78 9.78 10.78 9.76 10.78C7.45 10.74 5.54 12.59 5.5 14.9C5.54 17.21 7.45 19.06 9.76 19.02H23.42V19Z" fill="#CDF0F0"/>
<path opacity="0.1" d="M9.5 12C9.5 11.59 9.54 11.18 9.62 10.77C7.36 10.81 5.54 12.63 5.5 14.88C5.54 17.19 7.45 19.04 9.76 19H16.5C12.63 19 9.5 15.87 9.5 12Z" fill="#000064"/>
<path opacity="0.5" d="M28.49 14.29C28.49 14.2 28.49 14.12 28.5 14.03C28.44 11.27 26.16 9.07 23.39 9.12C23.22 9.12 23.06 9.12 22.9 9.15C22.89 9.12 22.87 9.09 22.86 9.06H22.85C21.71 6.61 19.26 5.03 16.56 5.01C14.86 5.01 13.22 5.64 11.96 6.77C12.63 6.6 13.32 6.51 14.01 6.51C16.66 6.51 19.15 7.75 20.75 9.85C20.42 10.07 20.11 10.33 19.84 10.62C20.23 10.55 20.62 10.51 21.01 10.51C24.59 10.51 27.5 13.41 27.51 17C27.52 16.98 27.53 16.97 27.55 16.95C28.09 16.22 28.42 15.35 28.5 14.44C28.5 14.39 28.5 14.34 28.5 14.3L28.49 14.29Z" fill="white"/>
<path d="M9.81001 10.77C10.11 8.57 11.49 6.68 13.49 5.71C13.34 3.06 11.15 1 8.50001 1C8.37001 1 8.25001 1.03 8.13001 1.04C8.34001 1.49 8.45001 1.99 8.45001 2.49C8.45001 4.42 6.88001 5.99 4.95001 5.99C4.46001 5.99 3.98001 5.89 3.54001 5.69C3.54001 5.8 3.51001 5.9 3.51001 6.01C3.51001 8.71 5.65001 10.93 8.36001 11.01C8.82001 10.85 9.29001 10.77 9.77001 10.77C9.79001 10.77 9.81001 10.77 9.83001 10.77H9.81001Z" fill="#E6F0FA"/>
<path opacity="0.1" d="M8.34002 11C8.80002 10.84 9.27002 10.76 9.75002 10.76C9.77002 10.76 9.79002 10.76 9.81002 10.76C10.11 8.56 11.49 6.67 13.49 5.7C13.47 5.31 13.4 4.91 13.28 4.54C10.21 4.85 7.75002 7.21 7.32002 10.26C7.30002 10.26 7.28002 10.26 7.26002 10.26C6.89002 10.26 6.51002 10.31 6.15002 10.41C6.83002 10.77 7.58002 10.97 8.34002 11Z" fill="#000064"/>
<path d="M9.5 22.5C9.77614 22.5 10 22.2761 10 22C10 21.7239 9.77614 21.5 9.5 21.5C9.22386 21.5 9 21.7239 9 22C9 22.2761 9.22386 22.5 9.5 22.5Z" fill="#CDF0F0"/>
<path d="M19.5 22.5C19.7761 22.5 20 22.2761 20 22C20 21.7239 19.7761 21.5 19.5 21.5C19.2239 21.5 19 21.7239 19 22C19 22.2761 19.2239 22.5 19.5 22.5Z" fill="#CDF0F0"/>
<path d="M18.5 27C18.7761 27 19 26.7761 19 26.5C19 26.2239 18.7761 26 18.5 26C18.2239 26 18 26.2239 18 26.5C18 26.7761 18.2239 27 18.5 27Z" fill="#CDF0F0"/>
<path d="M14.5 29C14.7761 29 15 28.7761 15 28.5C15 28.2239 14.7761 28 14.5 28C14.2239 28 14 28.2239 14 28.5C14 28.7761 14.2239 29 14.5 29Z" fill="#CDF0F0"/>
<path d="M9.5 31C9.77614 31 10 30.7761 10 30.5C10 30.2239 9.77614 30 9.5 30C9.22386 30 9 30.2239 9 30.5C9 30.7761 9.22386 31 9.5 31Z" fill="#CDF0F0"/>
<path d="M19.5 31C19.7761 31 20 30.7761 20 30.5C20 30.2239 19.7761 30 19.5 30C19.2239 30 19 30.2239 19 30.5C19 30.7761 19.2239 31 19.5 31Z" fill="#CDF0F0"/>
<path d="M23.5 29C23.7761 29 24 28.7761 24 28.5C24 28.2239 23.7761 28 23.5 28C23.2239 28 23 28.2239 23 28.5C23 28.7761 23.2239 29 23.5 29Z" fill="#CDF0F0"/>
<path d="M7.5 26.5C7.77614 26.5 8 26.2761 8 26C8 25.7239 7.77614 25.5 7.5 25.5C7.22386 25.5 7 25.7239 7 26C7 26.2761 7.22386 26.5 7.5 26.5Z" fill="#CDF0F0"/>
<path d="M13.5 25C13.7761 25 14 24.7761 14 24.5C14 24.2239 13.7761 24 13.5 24C13.2239 24 13 24.2239 13 24.5C13 24.7761 13.2239 25 13.5 25Z" fill="#CDF0F0"/>
<path d="M24.5 24C24.7761 24 25 23.7761 25 23.5C25 23.2239 24.7761 23 24.5 23C24.2239 23 24 23.2239 24 23.5C24 23.7761 24.2239 24 24.5 24Z" fill="#CDF0F0"/>
<path d="M23.42 19C26.18 19.03 28.45 16.82 28.5 14.06C28.45 11.28 26.17 9.07 23.39 9.12C23.22 9.12 23.06 9.12 22.9 9.15C21.82 6.62 19.33 4.99 16.58 5.01C13.2 4.97 10.31 7.43 9.82 10.78C9.8 10.78 9.78 10.78 9.76 10.78C7.45 10.74 5.54 12.59 5.5 14.9C5.54 17.21 7.45 19.06 9.76 19.02H23.42V19Z" stroke="#2E4369" stroke-linecap="round" stroke-linejoin="round"/>
<path d="M13.49 5.71C13.34 3.06 11.15 1 8.50001 1C8.37001 1 8.25001 1.03 8.13001 1.04C8.34001 1.49 8.45001 1.99 8.45001 2.49C8.45001 4.42 6.88001 5.99 4.95001 5.99C4.46001 5.99 3.98001 5.89 3.54001 5.69C3.54001 5.8 3.51001 5.9 3.51001 6.01C3.51001 8.71 5.65001 10.93 8.35001 11.01" stroke="#2E4369" stroke-linecap="round" stroke-linejoin="round"/>
<path d="M9.5 22.5C9.77614 22.5 10 22.2761 10 22C10 21.7239 9.77614 21.5 9.5 21.5C9.22386 21.5 9 21.7239 9 22C9 22.2761 9.22386 22.5 9.5 22.5Z" stroke="#2E4369" stroke-linecap="round" stroke-linejoin="round"/>
<path d="M19.5 22.5C19.7761 22.5 20 22.2761 20 22C20 21.7239 19.7761 21.5 19.5 21.5C19.2239 21.5 19 21.7239 19 22C19 22.2761 19.2239 22.5 19.5 22.5Z" stroke="#2E4369" stroke-linecap="round" stroke-linejoin="round"/>
<path d="M18.5 27C18.7761 27 19 26.7761 19 26.5C19 26.2239 18.7761 26 18.5 26C18.2239 26 18 26.2239 18 26.5C18 26.7761 18.2239 27 18.5 27Z" stroke="#2E4369" stroke-linecap="round" stroke-linejoin="round"/>
<path d="M14.5 29C14.7761 29 15 28.7761 15 28.5C15 28.2239 14.7761 28 14.5 28C14.2239 28 14 28.2239 14 28.5C14 28.7761 14.2239 29 14.5 29Z" stroke="#2E4369" stroke-linecap="round" stroke-linejoin="round"/>
<path d="M9.5 31C9.77614 31 10 30.7761 10 30.5C10 30.2239 9.77614 30 9.5 30C9.22386 30 9 30.2239 9 30.5C9 30.7761 9.22386 31 9.5 31Z" stroke="#2E4369" stroke-linecap="round" stroke-linejoin="round"/>
<path d="M19.5 31C19.7761 31 20 30.7761 20 30.5C20 30.2239 19.7761 30 19.5 30C19.2239 30 19 30.2239 19 30.5C19 30.7761 19.2239 31 19.5 31Z" stroke="#2E4369" stroke-linecap="round" stroke-linejoin="round"/>
<path d="M23.5 29C23.7761 29 24 28.7761 24 28.5C24 28.2239 23.7761 28 23.5 28C23.2239 28 23 28.2239 23 28.5C23 28.7761 23.2239 29 23.5 29Z" stroke="#2E4369" stroke-linecap="round" stroke-linejoin="round"/>
<path d="M7.5 26.5C7.77614 26.5 8 26.2761 8 26C8 25.7239 7.77614 25.5 7.5 25.5C7.22386 25.5 7 25.7239 7 26C7 26.2761 7.22386 26.5 7.5 26.5Z" stroke="#2E4369" stroke-linecap="round" stroke-linejoin="round"/>
<path d="M13.5 25C13.7761 25 14 24.7761 14 24.5C14 24.2239 13.7761 24 13.5 24C13.2239 24 13 24.2239 13 24.5C13 24.7761 13.2239 25 13.5 25Z" stroke="#2E4369" stroke-linecap="round" stroke-linejoin="round"/>
<path d="M24.5 24C24.7761 24 25 23.7761 25 23.5C25 23.2239 24.7761 23 24.5 23C24.2239 23 24 23.2239 24 23.5C24 23.7761 24.2239 24 24.5 24Z" stroke="#2E4369" stroke-linecap="round" stroke-linejoin="round"/>
</g>
<defs>
<clipPath id="clip0_2_1687">
<rect width="26" height="31" fill="white" transform="translate(3 0.5)"/>
</clipPath>
</defs>
</svg>
