<svg viewBox="0 0 32 32" fill="none" xmlns="http://www.w3.org/2000/svg">
<path d="M16.95 6.005C17.61 7.225 17.95 8.585 17.95 9.965C17.95 14.585 14.19 18.325 9.56 18.315C8.33 18.315 7.11 18.045 6 17.515C6.77 22.405 10.99 26.005 15.93 25.995C21.48 26.005 25.98 21.515 26 15.965C25.99 10.815 22.08 6.505 16.95 5.995V6.005Z" fill="#E6F0FA"/>
<path opacity="0.15" d="M15.94 22.515C12.59 22.515 9.46 20.855 7.59 18.075C7.04 17.945 6.51 17.755 6 17.525C6.77 22.415 10.99 26.015 15.93 26.005C21.48 26.015 25.98 21.525 26 15.975C26 15.385 25.94 14.795 25.84 14.215C24.99 19.015 20.81 22.515 15.94 22.515Z" fill="#000064"/>
<path d="M16.95 6.005C17.61 7.225 17.95 8.585 17.95 9.965C17.95 14.585 14.19 18.325 9.56 18.315C8.33 18.315 7.11 18.045 6 17.515C6.77 22.405 10.99 26.005 15.93 25.995C21.48 26.005 25.98 21.515 26 15.965C25.99 10.815 22.08 6.505 16.95 5.995V6.005Z" stroke="#2E4369" stroke-linecap="round" stroke-linejoin="round"/>
</svg>
