<svg viewBox="0 0 32 32" fill="none" xmlns="http://www.w3.org/2000/svg">
<g clip-path="url(#clip0_2_1653)">
<path d="M28 21.5C28 18.19 25.31 15.5 22 15.5C21.8 15.5 21.61 15.51 21.42 15.53C20.21 12.49 17.27 10.5 14 10.5C9.97 10.5 6.57 13.51 6.07 17.51C6.05 17.51 6.03 17.51 6 17.51C3.24 17.51 1 19.75 1 22.51C1 25.27 3.24 27.51 6 27.51H22.04C25.34 27.49 28.01 24.81 28.01 21.51L28 21.5Z" fill="#CDF0F0"/>
<path opacity="0.1" d="M6 19C6 18.53 6.05 18.05 6.13 17.59L6 17.5C3.24 17.5 1 19.74 1 22.5C1 25.26 3.24 27.5 6 27.5H14.48C9.79 27.5 6 23.69 6 19Z" fill="#000064"/>
<path opacity="0.5" d="M28 21.5C28 18.19 25.31 15.5 22 15.5C21.82 15.5 21.63 15.51 21.46 15.53H21.43C20.4 12.95 18.1 11.1 15.36 10.62C15.27 10.61 15.19 10.59 15.1 10.58C14.98 10.56 14.87 10.55 14.75 10.54C14.5 10.52 14.26 10.5 14.01 10.5C13.76 10.5 13.49 10.52 13.23 10.54C11.4 10.72 9.69001 11.53 8.39001 12.82C9.25001 12.61 10.13 12.5 11.01 12.5C14.15 12.5 17.14 13.84 19.22 16.19C19.03 16.29 18.85 16.4 18.67 16.51C18.78 16.51 18.9 16.49 19.01 16.49C23.15 16.49 26.51 19.85 26.51 23.99C26.51 24.55 26.44 25.11 26.32 25.66C27.41 24.54 28.01 23.05 28.01 21.49L28 21.5ZM20.88 15.61H20.85H20.88Z" fill="white"/>
<path d="M31 13.5C31 10.74 28.77 8.5 26.01 8.5C25 6.08 22.63 4.5 20.01 4.5C16.61 4.48 13.77 7.1 13.53 10.5V10.52C13.69 10.52 13.85 10.5 14 10.5C17.27 10.5 20.21 12.49 21.42 15.53C21.61 15.51 21.8 15.5 22 15.5C24.09 15.5 26.03 16.59 27.12 18.38C29.39 17.86 31 15.83 31 13.5Z" fill="#CDF0F0"/>
<path opacity="0.1" d="M31 13.5C31 10.74 28.77 8.5 26.01 8.5C25 6.08 22.63 4.5 20.01 4.5C16.61 4.48 13.77 7.1 13.53 10.5V10.52C13.69 10.52 13.85 10.5 14 10.5C17.27 10.5 20.21 12.49 21.42 15.53C21.61 15.51 21.8 15.5 22 15.5C24.09 15.5 26.03 16.59 27.12 18.38C29.39 17.86 31 15.83 31 13.5Z" fill="#000064"/>
<path d="M27.12 18.38C29.39 17.86 31 15.84 31 13.5C31 10.74 28.77 8.5 26.01 8.5C25 6.08 22.63 4.5 20.01 4.5C16.61 4.48 13.77 7.1 13.53 10.5" stroke="#2E4369" stroke-linecap="round" stroke-linejoin="round"/>
<path d="M28 21.5C28 18.19 25.31 15.5 22 15.5C21.8 15.5 21.61 15.51 21.42 15.53C20.21 12.49 17.27 10.5 14 10.5C9.97 10.5 6.57 13.51 6.07 17.51C6.05 17.51 6.03 17.51 6 17.51C3.24 17.51 1 19.75 1 22.51C1 25.27 3.24 27.51 6 27.51H22.04C25.34 27.49 28.01 24.81 28 21.51V21.5Z" stroke="#2E4369" stroke-linecap="round" stroke-linejoin="round"/>
</g>
<defs>
<clipPath id="clip0_2_1653">
<rect width="31" height="24" fill="white" transform="translate(0.5 4)"/>
</clipPath>
</defs>
</svg>
