<svg viewBox="0 0 32 32" fill="none" xmlns="http://www.w3.org/2000/svg">
<g clip-path="url(#clip0_2_1638)">
<path d="M31 21.5C31 18.19 28.31 15.5 25 15.5C24.8 15.5 24.61 15.51 24.42 15.53C23.21 12.5 20.27 10.5 17 10.5C12.97 10.5 9.57 13.51 9.07 17.51C9.05 17.51 9.03 17.51 9 17.51C6.24 17.51 4 19.75 4 22.51C4 25.27 6.24 27.51 9 27.51H25.03C28.33 27.49 31 24.81 31 21.51V21.5Z" fill="#CDF0F0"/>
<path opacity="0.1" d="M9 19C9 18.53 9.05 18.05 9.13 17.59L9 17.5C6.24 17.5 4 19.74 4 22.5C4 25.26 6.24 27.5 9 27.5H17.48C12.79 27.5 9 23.69 9 19Z" fill="#000064"/>
<path opacity="0.5" d="M31 21.5C31 18.19 28.31 15.5 25 15.5C24.82 15.5 24.63 15.51 24.46 15.53H24.43C23.4 12.95 21.1 11.1 18.37 10.62C18.28 10.61 18.19 10.59 18.11 10.58C17.99 10.56 17.88 10.55 17.76 10.54C17.52 10.52 17.27 10.5 17.02 10.5C16.77 10.5 16.5 10.52 16.24 10.54C14.41 10.72 12.7 11.53 11.4 12.82C12.26 12.61 13.14 12.5 14.02 12.5C17.16 12.5 20.15 13.84 22.23 16.19C22.04 16.29 21.86 16.4 21.68 16.51C21.8 16.51 21.91 16.49 22.02 16.49C26.16 16.49 29.52 19.85 29.52 23.99C29.52 24.55 29.45 25.11 29.33 25.66C30.42 24.54 31.02 23.05 31.02 21.49L31 21.5ZM23.88 15.61H23.85H23.88Z" fill="white"/>
<path d="M9.07 17.51C9.48 14.27 11.81 11.61 14.96 10.77C14.59 7.21 11.58 4.5 8 4.5C7.86 4.5 7.73 4.51 7.59 4.52C7.86 5.14 8 5.82 8 6.5C8 9.26 5.76 11.5 3 11.5C2.32 11.5 1.65 11.36 1.02 11.09C1.02 11.23 1 11.36 1 11.5C1 14.71 3.18 17.51 6.3 18.29C7.1 17.77 8.04 17.49 9 17.5C9.02 17.5 9.04 17.5 9.07 17.5V17.51Z" fill="#E6F0FA"/>
<path opacity="0.15" d="M6.29999 18.29C7.09999 17.77 8.03999 17.49 8.99999 17.5C9.01999 17.5 9.03999 17.5 9.06999 17.5C9.47999 14.26 11.81 11.6 14.96 10.76C14.96 10.72 14.95 10.67 14.94 10.63C14.46 10.54 13.98 10.5 13.5 10.49C9.46999 10.49 6.06999 13.5 5.56999 17.5C5.54999 17.5 5.52999 17.5 5.49999 17.5C5.17999 17.5 4.86999 17.53 4.54999 17.59C5.09999 17.9 5.67999 18.14 6.28999 18.29H6.29999Z" fill="#000064"/>
<path d="M14.96 10.78C14.59 7.21 11.59 4.5 8 4.5C7.86 4.5 7.73 4.51 7.59 4.52C7.86 5.14 8 5.82 8 6.5C8 9.26 5.76 11.5 3 11.5C2.32 11.5 1.65 11.36 1.02 11.09C1.02 11.23 1 11.36 1 11.5C1 14.71 3.18 17.51 6.3 18.29" stroke="#2E4369" stroke-linecap="round" stroke-linejoin="round"/>
<path d="M31 21.5C31 18.19 28.31 15.5 25 15.5C24.8 15.5 24.61 15.51 24.42 15.53C23.21 12.49 20.27 10.5 17 10.5C12.97 10.5 9.57 13.51 9.07 17.51C9.05 17.51 9.03 17.51 9 17.51C6.24 17.51 4 19.75 4 22.51C4 25.27 6.24 27.51 9 27.51H25.04C28.34 27.49 31.01 24.81 31 21.51V21.5Z" stroke="#2E4369" stroke-linecap="round" stroke-linejoin="round"/>
</g>
<defs>
<clipPath id="clip0_2_1638">
<rect width="31" height="24" fill="white" transform="translate(0.5 4)"/>
</clipPath>
</defs>
</svg>
