<svg viewBox="0 0 32 32" fill="none" xmlns="http://www.w3.org/2000/svg">
<g clip-path="url(#clip0_2_1709)">
<path d="M23.42 19C26.18 19.03 28.45 16.82 28.5 14.06C28.45 11.29 26.16 9.07 23.39 9.12C23.22 9.12 23.06 9.12 22.9 9.14C21.82 6.61 19.33 4.98 16.58 5C13.2 4.95 10.31 7.42 9.82 10.77C9.8 10.77 9.78 10.77 9.76 10.77C7.45 10.73 5.54 12.58 5.5 14.89C5.54 17.2 7.45 19.05 9.76 19.01H23.42V19Z" fill="#CDF0F0"/>
<path opacity="0.1" d="M9.5 12C9.5 11.59 9.54 11.18 9.62 10.77C7.36 10.81 5.54 12.63 5.5 14.88C5.54 17.19 7.45 19.04 9.76 19H16.5C12.63 19 9.5 15.87 9.5 12Z" fill="#000064"/>
<path opacity="0.5" d="M28.49 14.29C28.49 14.2 28.49 14.12 28.5 14.03C28.44 11.27 26.16 9.07 23.39 9.12C23.22 9.12 23.06 9.12 22.9 9.14C22.89 9.11 22.87 9.08 22.86 9.05H22.85C21.71 6.6 19.26 5.02 16.56 5C14.86 5 13.22 5.63 11.96 6.76C12.63 6.59 13.32 6.5 14.01 6.5C16.66 6.5 19.15 7.74 20.75 9.84C20.42 10.06 20.11 10.32 19.84 10.61C20.23 10.54 20.62 10.5 21.01 10.5C24.59 10.5 27.5 13.4 27.51 16.99C27.52 16.97 27.53 16.96 27.55 16.95C28.09 16.22 28.42 15.35 28.5 14.44C28.5 14.39 28.5 14.35 28.5 14.3L28.49 14.29Z" fill="white"/>
<path d="M9.82002 10.77C10.12 8.57 11.5 6.68 13.5 5.71C13.35 3.06 11.16 1 8.51002 1C8.38002 1 8.26002 1.03 8.14002 1.04C8.35002 1.49 8.46002 1.99 8.46002 2.49C8.46002 4.42 6.89002 5.99 4.96002 5.99C4.47002 5.99 3.99002 5.89 3.55002 5.69C3.55002 5.8 3.52002 5.9 3.52002 6.01C3.52002 8.71 5.66002 10.93 8.37002 11.01C8.83002 10.85 9.30002 10.77 9.78002 10.77C9.80002 10.77 9.82002 10.77 9.84002 10.77H9.82002Z" fill="#E6F0FA"/>
<path opacity="0.1" d="M8.35003 11C8.81003 10.84 9.28003 10.76 9.76003 10.76C9.78003 10.76 9.80003 10.76 9.82003 10.76C10.12 8.55999 11.5 6.66999 13.5 5.69999C13.48 5.30999 13.41 4.90999 13.29 4.53999C10.22 4.84999 7.76003 7.20999 7.33003 10.26C7.31003 10.26 7.29003 10.26 7.27003 10.26C6.90003 10.26 6.52003 10.31 6.16003 10.41C6.84003 10.77 7.59003 10.97 8.35003 11Z" fill="#000064"/>
<path d="M22.5 22.99V27.99" stroke="#2E4369" stroke-linecap="round" stroke-linejoin="round"/>
<path d="M18.5 22.99V24.99" stroke="#2E4369" stroke-linecap="round" stroke-linejoin="round"/>
<path d="M14.5 22.99V27.99" stroke="#2E4369" stroke-linecap="round" stroke-linejoin="round"/>
<path d="M10.5 22.99V25.99" stroke="#2E4369" stroke-linecap="round" stroke-linejoin="round"/>
<path d="M23.42 19C26.18 19.03 28.45 16.82 28.5 14.06C28.45 11.28 26.17 9.06999 23.39 9.11999C23.22 9.11999 23.06 9.11999 22.9 9.13999C21.82 6.60999 19.33 4.97999 16.58 4.99999C13.2 4.95999 10.31 7.41999 9.82 10.77C9.8 10.77 9.78 10.77 9.76 10.77C7.45 10.73 5.54 12.58 5.5 14.89C5.54 17.2 7.45 19.05 9.76 19.01H23.42V19Z" stroke="#2E4369" stroke-linecap="round" stroke-linejoin="round"/>
<path d="M13.49 5.71C13.34 3.06 11.15 1 8.50001 1C8.37001 1 8.25001 1.03 8.13001 1.04C8.34001 1.49 8.45001 1.99 8.45001 2.49C8.45001 4.42 6.88001 5.99 4.95001 5.99C4.46001 5.99 3.98001 5.89 3.54001 5.69C3.54001 5.8 3.51001 5.9 3.51001 6.01C3.51001 8.71 5.65001 10.93 8.36001 11.01" stroke="#2E4369" stroke-linecap="round" stroke-linejoin="round"/>
<path d="M10.5 28V29" stroke="#2E4369" stroke-linecap="round" stroke-linejoin="round"/>
<path d="M14.5 30V31" stroke="#2E4369" stroke-linecap="round" stroke-linejoin="round"/>
<path d="M18.5 27V28" stroke="#2E4369" stroke-linecap="round" stroke-linejoin="round"/>
<path d="M22.5 30V31" stroke="#2E4369" stroke-linecap="round" stroke-linejoin="round"/>
</g>
<defs>
<clipPath id="clip0_2_1709">
<rect width="26" height="31" fill="white" transform="translate(3 0.5)"/>
</clipPath>
</defs>
</svg>
