<svg viewBox="0 0 32 32" fill="none" xmlns="http://www.w3.org/2000/svg">
<g clip-path="url(#clip0_2_1728)">
<path d="M23.42 19.01C26.18 19.04 28.45 16.83 28.5 14.07C28.45 11.29 26.17 9.08001 23.39 9.13001C23.22 9.13001 23.06 9.13001 22.9 9.16001C21.82 6.63001 19.33 4.99001 16.58 5.02001C13.2 4.98001 10.31 7.44001 9.82 10.79C9.8 10.79 9.78 10.79 9.76 10.79C7.45 10.75 5.54 12.6 5.5 14.91C5.54 17.22 7.45 19.07 9.76 19.03H23.42V19.01Z" fill="#CDF0F0"/>
<path opacity="0.1" d="M9.5 12C9.5 11.59 9.54 11.18 9.62 10.77C7.36 10.81 5.54 12.63 5.5 14.88C5.54 17.19 7.45 19.04 9.76 19H16.5C12.63 19 9.5 15.87 9.5 12Z" fill="#000064"/>
<path opacity="0.5" d="M28.49 14.3C28.49 14.21 28.49 14.13 28.5 14.04C28.44 11.28 26.16 9.08 23.39 9.12C23.22 9.12 23.06 9.12 22.9 9.15C22.89 9.12 22.87 9.09 22.86 9.05H22.85C21.71 6.6 19.26 5.02 16.56 5C14.86 5 13.22 5.63 11.96 6.76C12.63 6.59 13.32 6.5 14.01 6.5C16.66 6.5 19.15 7.74 20.75 9.84C20.42 10.06 20.11 10.32 19.84 10.61C20.23 10.54 20.62 10.5 21.01 10.5C24.6 10.5 27.5 13.4 27.51 16.99C27.52 16.97 27.53 16.96 27.55 16.95C28.09 16.22 28.42 15.35 28.5 14.44C28.5 14.4 28.5 14.35 28.5 14.3H28.49Z" fill="white"/>
<path d="M9.82002 10.77C10.12 8.57001 11.5 6.68001 13.5 5.71001C13.35 3.06001 11.16 0.990005 8.51002 0.990005C8.38002 0.990005 8.26002 1.02001 8.14002 1.03001C8.35002 1.48001 8.46002 1.98001 8.46002 2.48001C8.46002 4.41001 6.89002 5.98001 4.96002 5.98001C4.47002 5.98001 3.99002 5.88 3.55002 5.68001C3.55002 5.79001 3.52002 5.89001 3.52002 6.00001C3.52002 8.70001 5.66002 10.92 8.37002 11C8.83002 10.84 9.30002 10.76 9.78002 10.76C9.80002 10.76 9.82002 10.76 9.84002 10.76L9.82002 10.77Z" fill="#E6F0FA"/>
<path opacity="0.1" d="M8.35003 11.01C8.81003 10.85 9.28003 10.77 9.76003 10.77C9.78003 10.77 9.80003 10.77 9.82003 10.77C10.12 8.57 11.5 6.68 13.5 5.71C13.48 5.31 13.41 4.92 13.29 4.55C10.22 4.86 7.76003 7.22 7.33003 10.27C7.31003 10.27 7.29003 10.27 7.27003 10.27C6.90003 10.27 6.52003 10.32 6.16003 10.42C6.84003 10.78 7.59003 10.98 8.35003 11.01Z" fill="#000064"/>
<path d="M18.87 12.5L11.5 20.5H15.23L13.6 27.5L21.5 19H17.82L18.87 12.5Z" fill="#FFFF66"/>
<path d="M21.5 19.01H23.5C26.24 19.03 28.48 16.82 28.5 14.08C28.5 14.08 28.5 14.07 28.5 14.06C28.45 11.28 26.17 9.07 23.39 9.12C23.22 9.12 23.06 9.12 22.9 9.15C21.82 6.62 19.33 4.98 16.58 5.01C13.2 4.97 10.31 7.43 9.82 10.78C9.8 10.78 9.78 10.78 9.76 10.78C7.45 10.74 5.54 12.59 5.5 14.9C5.65 17.26 7.64 19.08 10 19.03H12.88" stroke="#2E4369" stroke-linecap="round" stroke-linejoin="round"/>
<path d="M8.49999 23L5.54999 26.68" stroke="#2E4369" stroke-linecap="round" stroke-linejoin="round"/>
<path d="M21.48 26.77L18.1 31" stroke="#2E4369" stroke-linecap="round" stroke-linejoin="round"/>
<path d="M24.5 23L23.7 24" stroke="#2E4369" stroke-linecap="round" stroke-linejoin="round"/>
<path d="M13.49 5.72C13.34 3.07 11.15 1 8.50001 1C8.37001 1 8.25001 1.03 8.13001 1.04C8.34001 1.49 8.45001 1.99 8.45001 2.49C8.45001 4.42 6.88001 5.99 4.95001 5.99C4.46001 5.99 3.98001 5.89 3.54001 5.69C3.54001 5.8 3.51001 5.9 3.51001 6.01C3.51001 8.71 5.65001 10.93 8.35001 11.01" stroke="#2E4369" stroke-linecap="round" stroke-linejoin="round"/>
<path d="M18.87 12.5L11.5 20.5H15.23L13.6 27.5L21.5 19H17.82L18.87 12.5V12.5Z" stroke="#2E4369" stroke-linecap="round" stroke-linejoin="round"/>
</g>
<defs>
<clipPath id="clip0_2_1728">
<rect width="26" height="31" fill="white" transform="translate(3 0.5)"/>
</clipPath>
</defs>
</svg>
