<svg viewBox="0 0 32 32" fill="none" xmlns="http://www.w3.org/2000/svg">
<g clip-path="url(#clip0_2_1827)">
<path d="M24.01 19.945C26.96 20.015 29.41 17.695 29.5 14.745C29.41 11.785 26.94 9.465 23.98 9.545C23.8 9.545 23.62 9.545 23.45 9.575C22.25 6.885 19.56 5.175 16.62 5.215C13.01 5.125 9.88997 7.725 9.31997 11.285C9.29997 11.285 9.27997 11.285 9.25997 11.285C6.78997 11.215 4.73997 13.155 4.65997 15.625C4.73997 18.095 6.78997 20.035 9.25997 19.955H24.01V19.945Z" fill="#CDF0F0"/>
<path opacity="0.1" d="M8.97997 12.575C8.97997 12.145 9.01997 11.705 9.09997 11.285C6.68997 11.285 4.72997 13.205 4.65997 15.615C4.73997 18.085 6.78997 20.025 9.25997 19.945H16.54C12.42 19.995 9.02997 16.695 8.97997 12.575Z" fill="#000064"/>
<path opacity="0.5" d="M29.49 14.985C29.49 14.895 29.5 14.805 29.5 14.715C29.39 11.765 26.93 9.455 23.98 9.545C23.8 9.545 23.62 9.545 23.45 9.575C23.44 9.545 23.42 9.505 23.4 9.475H23.39C22.13 6.875 19.49 5.215 16.59 5.215C14.76 5.215 13 5.875 11.62 7.065C12.35 6.885 13.09 6.795 13.84 6.785C16.68 6.785 19.36 8.075 21.12 10.305C20.76 10.535 20.43 10.805 20.14 11.115C20.56 11.035 20.98 11.005 21.4 10.995C25.22 10.945 28.36 14.005 28.42 17.825L28.46 17.775C29.04 17.005 29.39 16.095 29.48 15.135C29.48 15.085 29.49 15.035 29.49 14.985Z" fill="white"/>
<path d="M9.32 11.285C9.66 8.95501 11.15 6.95501 13.29 5.96501C13.09 3.14501 10.72 0.975007 7.9 1.00501C7.76 1.00501 7.63 1.03501 7.5 1.04501C7.73 1.52501 7.84 2.03501 7.85 2.56501C7.82 4.62501 6.13 6.27501 4.07 6.24501C3.54 6.24501 3.02 6.13501 2.54 5.92501C2.54 6.03501 2.5 6.14501 2.5 6.26501C2.54 9.14501 4.85 11.475 7.73 11.525C8.22 11.365 8.74 11.275 9.26 11.275C9.28 11.275 9.3 11.275 9.32 11.275V11.285Z" fill="#E6F0FA"/>
<path opacity="0.1" d="M7.72999 11.525C8.21999 11.365 8.73999 11.275 9.25999 11.275C9.27999 11.275 9.29999 11.275 9.31999 11.275C9.65999 8.94502 11.15 6.94502 13.29 5.95502C13.26 5.53502 13.19 5.12502 13.06 4.73502C9.78999 5.02502 7.12999 7.50502 6.61999 10.755C6.59999 10.755 6.57999 10.755 6.55999 10.755C6.15999 10.755 5.74999 10.805 5.35999 10.905C6.08999 11.285 6.89999 11.495 7.72999 11.525Z" fill="#000064"/>
<path d="M24.01 19.945C26.96 20.015 29.41 17.695 29.5 14.745C29.41 11.785 26.94 9.465 23.98 9.545C23.8 9.545 23.62 9.555 23.45 9.575C22.25 6.885 19.56 5.175 16.62 5.215C13.01 5.125 9.88997 7.725 9.31997 11.285C9.29997 11.285 9.27997 11.285 9.25997 11.285C6.78997 11.215 4.73997 13.155 4.65997 15.625C4.73997 18.095 6.78997 20.025 9.25997 19.955H24.01V19.945Z" stroke="#2E4369" stroke-width="1.07" stroke-linecap="round" stroke-linejoin="round"/>
<path d="M8.98004 23.625V25.735" stroke="#2E4369" stroke-width="1.07" stroke-linecap="round" stroke-linejoin="round"/>
<path d="M10.06 24.685H7.90002" stroke="#2E4369" stroke-width="1.07" stroke-linecap="round" stroke-linejoin="round"/>
<path d="M17.62 24.685H15.46" stroke="#2E4369" stroke-width="1.07" stroke-linecap="round" stroke-linejoin="round"/>
<path d="M16.54 25.735V23.635" stroke="#2E4369" stroke-width="1.07" stroke-linecap="round" stroke-linejoin="round"/>
<path d="M13.84 29.945H11.68" stroke="#2E4369" stroke-width="1.07" stroke-linecap="round" stroke-linejoin="round"/>
<path d="M12.76 30.995V28.895" stroke="#2E4369" stroke-width="1.07" stroke-linecap="round" stroke-linejoin="round"/>
<path d="M20.32 28.895V30.995" stroke="#2E4369" stroke-width="1.07" stroke-linecap="round" stroke-linejoin="round"/>
<path d="M21.4 29.945H19.24" stroke="#2E4369" stroke-width="1.07" stroke-linecap="round" stroke-linejoin="round"/>
<path d="M24.1 23.625V25.735" stroke="#2E4369" stroke-width="1.07" stroke-linecap="round" stroke-linejoin="round"/>
<path d="M25.18 24.685H23.02" stroke="#2E4369" stroke-width="1.07" stroke-linecap="round" stroke-linejoin="round"/>
<path d="M13.29 5.955C13.09 3.135 10.73 0.964997 7.9 0.994997C7.76 0.994997 7.63 1.025 7.5 1.035C7.73 1.515 7.84 2.035 7.85 2.555C7.82 4.615 6.13 6.265 4.07 6.235C3.54 6.235 3.02 6.125 2.54 5.915C2.54 6.025 2.5 6.135 2.5 6.255C2.54 9.135 4.85 11.465 7.73 11.515" stroke="#2E4369" stroke-width="1.07" stroke-linecap="round" stroke-linejoin="round"/>
</g>
<defs>
<clipPath id="clip0_2_1827">
<rect width="28.06" height="31.07" fill="white" transform="translate(1.96997 0.464996)"/>
</clipPath>
</defs>
</svg>
